<svg width="30" height="37" viewBox="0 0 30 37" fill="none" xmlns="http://www.w3.org/2000/svg">
<path fill-rule="evenodd" clip-rule="evenodd" d="M16.6667 1.68182C16.6667 1.23577 16.4911 0.807995 16.1785 0.492593C15.8659 0.177191 15.442 0 15 0C14.558 0 14.134 0.177191 13.8215 0.492593C13.5089 0.807995 13.3333 1.23577 13.3333 1.68182V3.36364H5C3.67392 3.36364 2.40215 3.89521 1.46447 4.84142C0.526784 5.78762 0 7.07095 0 8.40909V28.5909C0 29.929 0.526784 31.2124 1.46447 32.1586C2.40215 33.1048 3.67392 33.6364 5 33.6364H13.3333V35.3182C13.3333 35.7642 13.5089 36.192 13.8215 36.5074C14.134 36.8228 14.558 37 15 37C15.442 37 15.8659 36.8228 16.1785 36.5074C16.4911 36.192 16.6667 35.7642 16.6667 35.3182V33.6364C17.1087 33.6364 17.5326 33.4592 17.8452 33.1438C18.1577 32.8284 18.3333 32.4006 18.3333 31.9545C18.3333 31.5085 18.1577 31.0807 17.8452 30.7653C17.5326 30.4499 17.1087 30.2727 16.6667 30.2727V6.72727C17.1087 6.72727 17.5326 6.55008 17.8452 6.23468C18.1577 5.91928 18.3333 5.4915 18.3333 5.04545C18.3333 4.59941 18.1577 4.17163 17.8452 3.85623C17.5326 3.54083 17.1087 3.36364 16.6667 3.36364V1.68182ZM23.3333 3.36364C22.8913 3.36364 22.4674 3.54083 22.1548 3.85623C21.8423 4.17163 21.6667 4.59941 21.6667 5.04545C21.6667 5.4915 21.8423 5.91928 22.1548 6.23468C22.4674 6.55008 22.8913 6.72727 23.3333 6.72727H25C25.442 6.72727 25.866 6.90446 26.1785 7.21987C26.4911 7.53527 26.6667 7.96304 26.6667 8.40909V10.0909C26.6667 10.537 26.8423 10.9647 27.1548 11.2801C27.4674 11.5955 27.8913 11.7727 28.3333 11.7727C28.7754 11.7727 29.1993 11.5955 29.5118 11.2801C29.8244 10.9647 30 10.537 30 10.0909V8.40909C30 7.07095 29.4732 5.78762 28.5355 4.84142C27.5979 3.89521 26.3261 3.36364 25 3.36364H23.3333ZM30 16.8182C30 16.3721 29.8244 15.9444 29.5118 15.629C29.1993 15.3136 28.7754 15.1364 28.3333 15.1364C27.8913 15.1364 27.4674 15.3136 27.1548 15.629C26.8423 15.9444 26.6667 16.3721 26.6667 16.8182V20.1818C26.6667 20.6279 26.8423 21.0556 27.1548 21.371C27.4674 21.6864 27.8913 21.8636 28.3333 21.8636C28.7754 21.8636 29.1993 21.6864 29.5118 21.371C29.8244 21.0556 30 20.6279 30 20.1818V16.8182ZM30 26.9091C30 26.463 29.8244 26.0353 29.5118 25.7199C29.1993 25.4045 28.7754 25.2273 28.3333 25.2273C27.8913 25.2273 27.4674 25.4045 27.1548 25.7199C26.8423 26.0353 26.6667 26.463 26.6667 26.9091V28.5909C26.6667 29.037 26.4911 29.4647 26.1785 29.7801C25.866 30.0955 25.442 30.2727 25 30.2727H23.3333C22.8913 30.2727 22.4674 30.4499 22.1548 30.7653C21.8423 31.0807 21.6667 31.5085 21.6667 31.9545C21.6667 32.4006 21.8423 32.8284 22.1548 33.1438C22.4674 33.4592 22.8913 33.6364 23.3333 33.6364H25C26.3261 33.6364 27.5979 33.1048 28.5355 32.1586C29.4732 31.2124 30 29.929 30 28.5909V26.9091Z"/>
</svg>

