        <svg
          id="Layer_1"
          xmlns="http://www.w3.org/2000/svg"
          viewBox="0 0 1920 780"
          fill="#ffffff"
          className="h-16"
        >
          <polygon points="954.4 260.68 996.04 301.95 996.04 567.96 954.4 609.23 954.4 609.23 954.4 613.46 1142.14 613.46 1142.14 609.23 1142.14 609.23 1100.5 567.96 1100.5 301.95 1142.14 260.68 1142.14 256.45 954.4 256.45 954.4 260.68" />
          <polygon points="377.71 260.68 419.35 301.95 419.35 567.96 377.71 609.23 377.71 609.23 377.71 613.46 565.45 613.46 565.45 609.23 565.45 609.23 523.81 567.96 523.81 301.95 565.45 260.68 565.45 256.45 377.71 256.45 377.71 260.68" />
          <path d="m215.91,595.81h-41.46V74.11l48.56-48.12s.09-.02.14-.03v-4.24H10v4.24h0l48.7,48.27v486.74l-48.7,48.27h0v4.23h345.15v-150.74h-4.94l-134.3,133.1Z" />
          <polygon points="824.48 256.45 824.48 260.68 872.2 301.95 872.2 301.95 795.84 518.77 716.1 292.14 747.84 260.68 747.84 256.45 588.02 256.45 588.02 260.68 711.03 613.46 784.69 613.46 893.5 301.95 931.84 260.68 931.84 256.45 824.48 256.45" />
          <path d="m1810.48,540.18l-140.46-10.59c-28.23-1.41-43.76-11.29-43.76-29.64,0-13.41,9.18-23.29,26.82-28.23,21.88,9.88,47.99,14.82,77.64,14.82,91.05,0,150.34-48.7,150.34-120.69,0-22.32-4.8-37.54-11.89-51.24-4.5-8.7-11.28-18.91-18.5-25.83l53.03,5.53v-48.45l-83.01,20.37c-9.77-4.83-23.12-11.15-42.38-15.53-16.39-3.73-29.71-4.85-47.59-4.85-90.34,0-149.63,48.7-149.63,119.99,0,43.76,21.88,79.05,59.29,100.23-36.7,9.88-62.11,44.47-62.11,82.58,0,33.17,14.82,57.17,40.94,69.88-39.52,11.29-60.7,38.82-60.7,68.47,0,51.52,50.11,83.99,161.63,83.99,140.46,0,189.86-75.52,189.86-140.46,0-59.99-40.66-86.43-99.52-90.34Zm-79.05-281.62c30.35.71,48.7,35.29,48.7,110.81,0,71.29-18.35,103.76-48.7,103.76s-49.41-32.47-49.41-103.76c0-75.52,18.35-110.81,49.41-110.81Zm18.35,486.31c-81.17,0-130.58-34.59-130.58-86.11,0-14.82,3.53-24.7,12.71-35.29,7.76,2.83,15.53,4.24,24.7,4.94l148.22,13.41c44.47,3.53,59.29,13.41,59.29,38.12,0,36.7-40.94,64.93-114.34,64.93Z" />
          <path d="m1559.25,613.46v-4.23h0s0,0,0,0l-41.44-41.07c-.13-1.77-.2-3.6-.2-5.52v-209.49c0-66.35-36-107.28-103.05-107.28-51.52,0-90.34,28.23-103.75,70.58v-59.99h-146.1v4.23l41.64,41.27v266.01l-41.64,41.27s0,0,0,0h0v4.23h181.68v-4.23l-35.58-41.27v-240.93c9.18-18.35,25.41-34.58,52.94-34.58,33.17,0,49.41,21.88,49.41,64.93v210.57l-35.57,41.28v4.23h181.67Z" />
          <path d="m691.72,217c24.29,0,49.7-14.52,56.68-54.72l-1.96-.56c-8.1,17.59-20.94,22.06-36.02,22.06-27.08,0-45.51-19.82-48.3-55.56h85.99c.28-46.07-27.64-63.1-54.72-63.1-38.25,0-63.66,32.94-63.66,78.73s29.6,73.15,61.98,73.15Zm-29.87-98.83c0-27.92,9.77-45.23,25.41-45.23,13.96,0,23.17,12.56,22.89,48.3h-48.3v-3.07Z" />
          <path d="m1085.03,134.36c-32.11,6.7-52.21,22.89-52.21,47.74,0,18.43,13.4,34.9,37.41,34.9,20.94,0,34.62-12.84,38.53-26.8l.56,2.23c1.95,14.8,11.73,24.57,29.04,24.57,19.54,0,34.34-11.73,39.09-34.62l-2.51-.28c-3.07,10.33-9.21,13.4-14.52,13.4-6.14,0-10.89-5.03-10.89-14.8v-56.12c0-35.74-16.19-59.47-53.33-59.47-32.94,0-54.16,20.1-58.63,52.21l2.23.56c6.14-21.78,18.99-30.43,37.13-30.43,23.45,0,31.27,14.8,31.27,36.29v5.86l-23.17,4.75Zm23.17,51.09c-3.35,7.26-8.66,10.33-16.47,10.33-13.4,0-20.38-11.17-20.38-25.41s4.19-27.36,25.96-31.83l10.89-1.95v48.86Z" />
          <path d="m1304.71,56.18c13.12,0,22.9-10.04,22.9-22.9s-9.78-22.88-22.9-22.88-23.16,10.04-23.16,22.88,10.04,22.9,23.16,22.9Z" />
          <path d="m1419.51,217c43.27,0,72.31-31.55,72.31-75.94s-29.04-75.94-72.31-75.94-72.59,31.55-72.59,75.94,29.31,75.94,72.59,75.94Zm0-142.95c19.82,0,28.48,20.38,28.48,67.01s-8.65,67.01-28.48,67.01-28.48-20.66-28.48-67.01,8.37-67.01,28.48-67.01Z" />
          <path d="m1707.54,134.36c-32.11,6.7-52.21,22.89-52.21,47.74,0,18.43,13.4,34.9,37.41,34.9,20.94,0,34.62-12.84,38.53-26.8l.56,2.23c1.95,14.8,11.73,24.57,29.04,24.57,19.54,0,34.34-11.73,39.09-34.62l-2.51-.28c-3.07,10.33-9.21,13.4-14.52,13.4-6.14,0-10.89-5.03-10.89-14.8v-56.12c0-35.74-16.19-59.47-53.33-59.47-32.94,0-54.16,20.1-58.63,52.21l2.23.56c6.14-21.78,18.99-30.43,37.13-30.43,23.45,0,31.27,14.8,31.27,36.29v5.86l-23.17,4.75Zm23.17,51.09c-3.35,7.26-8.66,10.33-16.47,10.33-13.4,0-20.38-11.17-20.38-25.41s4.19-27.36,25.96-31.83l10.89-1.95v48.86Z" />
          <polygon points="1269.29 212.8 1342.84 212.8 1342.84 212.8 1343.24 212.8 1343.24 211.13 1326.77 194.81 1326.75 65.69 1268.98 81.8 1268.98 83.48 1285.45 99.8 1285.45 194.81 1268.98 211.13 1268.98 212.8 1269.29 212.8 1269.29 212.8" />
          <path d="m623.69,179.87l-2.24-.84c-3.35,9.51-9.49,16.49-20.66,16.49-10.33,0-15.63-8.67-15.63-21.5v-92.98h26.23v-5.59h-26.23V23.8h-.55l-56.62,57.23h15.57v99.39c0,21.79,11.17,36.57,34.62,36.57s39.37-16.74,45.51-37.13Z" />
          <path d="m831.31,212.8v-1.67l-16.48-16.33v-45.08c0-37.13,12-46.9,30.16-46.9,6.96,0,11.44.84,14.52,2.51h1.4v-40.21h-3.08c-24.29,0-41.05,18.15-43.27,63.11h-1.4v-62.53l-56.13,16.11v1.67l16.48,16.33v95l-16.48,16.33v1.67h74.28Z" />
          <polygon points="279.08 21.7 279.08 23.38 295.56 39.7 295.56 194.8 279.08 211.13 279.08 212.8 357.82 212.8 357.82 211.13 341.35 194.8 341.35 39.7 357.82 23.38 357.82 21.7 279.08 21.7" />
          <path d="m1187.59,180.42c0,21.79,11.17,36.57,34.62,36.57s39.37-16.74,45.51-37.13l-2.24-.84c-3.35,9.51-9.49,16.49-20.66,16.49-10.33,0-15.63-8.67-15.63-21.5v-92.98h26.23v-5.59h-26.23V23.8h-.55l-56.62,57.23h15.57v99.39Z" />
          <polygon points="1816.27 194.81 1799.8 211.13 1799.8 212.8 1800.11 212.8 1800.11 212.8 1873.66 212.8 1873.66 212.8 1874.06 212.8 1874.06 211.13 1857.59 194.81 1857.57 9.01 1799.8 25.12 1799.8 26.8 1816.27 43.12 1816.27 194.81" />
          <path d="m1567.41,212.8v-1.67l-14.08-16.32v-97.58c3.63-7.26,10.05-13.68,20.94-13.68,13.12,0,19.54,8.65,19.54,25.68v85.58l-14.07,16.33v1.67h71.86v-1.67l-16.47-16.33v-87.25c0-26.24-14.24-42.44-40.76-42.44-20.38,0-35.74,11.17-41.04,27.92v-23.73h-57.79v1.67l16.47,16.32v107.51l-16.47,16.32v1.67h71.87Z" />
          <path d="m930.65,97.22c3.63-7.26,10.05-13.68,20.94-13.68,13.12,0,19.54,8.65,19.54,25.68v85.58l-14.07,16.33v1.67h71.86v-1.67l-16.47-16.33v-87.25c0-26.24-14.24-42.44-40.76-42.44-20.38,0-35.74,11.17-41.04,27.92v-23.73h-57.79v1.67l16.47,16.32v107.51l-16.47,16.32v1.67h71.87v-1.67l-14.08-16.32v-97.58Z" />
          <path d="m442.84,212.8v-1.67l-14.08-16.32v-97.58c3.63-7.26,10.05-13.68,20.94-13.68,13.12,0,19.54,8.65,19.54,25.68v85.58l-14.07,16.33v1.67h71.86v-1.67l-16.47-16.33v-87.25c0-26.24-14.24-42.44-40.76-42.44-20.38,0-35.74,11.17-41.04,27.92v-23.73h-57.79v1.67l16.47,16.32v107.51l-16.47,16.32v1.67h71.87Z" />
        </svg>
